<svg width="94" height="83" viewBox="0 0 94 83" fill="none" xmlns="http://www.w3.org/2000/svg">
<g filter="url(#filter0_d_4004_75)">
<path d="M45.0522 39.4126L58.4965 25.9717C64.9091 19.5591 64.8774 11.1797 58.4433 4.83984C52.0092 -1.59076 43.724 -1.61916 37.3149 4.79004L23.8739 18.2344L45.0522 39.4126ZM43.4628 41.0054L22.2812 19.8237L8.79136 33.3135C2.37878 39.7261 2.41051 48.1055 8.84116 54.4419C15.2787 60.876 23.5605 60.9043 30.0151 54.4951L43.4628 41.0054ZM89.6577 54.5307C89.143 44.6811 80.8808 36.8506 70.8608 36.8506C60.8862 36.8506 52.624 44.6811 52.0639 54.5307H89.6577ZM89.6577 56.7495H52.0639C52.6274 66.6026 60.8408 74.4786 70.8608 74.4786C80.9296 74.4786 89.143 66.648 89.6577 56.7495Z" fill="white" style="fill:white;fill-opacity:1;"/>
</g>
<defs>
<filter id="filter0_d_4004_75" x="0" y="0" width="93.6577" height="82.4785" filterUnits="userSpaceOnUse" color-interpolation-filters="sRGB">
<feFlood flood-opacity="0" result="BackgroundImageFix"/>
<feColorMatrix in="SourceAlpha" type="matrix" values="0 0 0 0 0 0 0 0 0 0 0 0 0 0 0 0 0 0 127 0" result="hardAlpha"/>
<feOffset dy="4"/>
<feGaussianBlur stdDeviation="2"/>
<feComposite in2="hardAlpha" operator="out"/>
<feColorMatrix type="matrix" values="0 0 0 0 0 0 0 0 0 0 0 0 0 0 0 0 0 0 0.25 0"/>
<feBlend mode="normal" in2="BackgroundImageFix" result="effect1_dropShadow_4004_75"/>
<feBlend mode="normal" in="SourceGraphic" in2="effect1_dropShadow_4004_75" result="shape"/>
</filter>
</defs>
</svg>
